<?xml version="1.0" encoding="utf-8"?>
<!-- Generator: Adobe Illustrator 21.0.0, SVG Export Plug-In . SVG Version: 6.00 Build 0)  -->
<svg version="1.1" xmlns="http://www.w3.org/2000/svg" xmlns:xlink="http://www.w3.org/1999/xlink" x="0px" y="0px"
	 viewBox="0 0 83.7 83.7" style="enable-background:new 0 0 83.7 83.7;" xml:space="preserve">
<style type="text/css">
	.st0{fill:none;}
	.st1{fill:#F2F2DA;}
	.st2{fill:url(#Nueva_muestra_de_motivo_3);stroke:#99CB12;stroke-width:2;stroke-miterlimit:10;}
	.st3{fill:#99CB12;}
	.st4{fill:#EFEF5E;}
	.st5{fill:#5F134F;}
	.st6{fill:url(#Nueva_muestra_de_motivo_3);}
	.st7{fill:#72A500;}
</style>
<pattern  x="-1050.7" y="-442.9" width="20.3" height="24" patternUnits="userSpaceOnUse" id="Nueva_muestra_de_motivo_3" viewBox="0 -24 20.3 24" style="overflow:visible;">
	<g>
		<rect y="-24" class="st0" width="20.3" height="24"/>
		<rect y="-24" class="st1" width="20.3" height="24"/>
	</g>
</pattern>
<g id="OBJECTS">
	<circle class="st2" cx="41.9" cy="41.9" r="40.9"/>
	<g>
		<path class="st3" d="M23.2,57.3c0-5.7,0-11.3,0-17c-0.4,0-0.7,0-1.1,0c-0.9,0-1.9,0-2.8,0c-1,0-1.8-0.5-2.1-1.3
			c-0.4-0.9-0.2-1.8,0.6-2.5c2.3-2.1,4.6-4.2,6.9-6.3c0.3-0.3,0.4-0.5,0.4-0.9c0-3.7,0-7.4,0-11.1c0-0.8,0.3-1.1,1.1-1.1
			c2.7,0,5.3,0,8,0c0.8,0,1.1,0.3,1.1,1.1c0,0.7,0,1.5,0,2.3c0.2-0.1,0.3-0.2,0.4-0.3c1.8-1.7,3.6-3.3,5.4-5c0.5-0.5,1-0.5,1.5,0
			c3.8,3.5,7.6,7,11.5,10.5c3.9,3.6,7.8,7.2,11.7,10.7c1.2,1.1,1,2.6,0.3,3.3c-0.4,0.4-1,0.7-1.6,0.7c-1.2,0-2.4,0-3.6,0
			c-0.1,0-0.3,0-0.4,0c0,5.7,0,11.3,0,17c0.1,0,0.3,0,0.4,0c1.3,0,2.7,0,4,0c0.6,0,1,0.4,1,0.9c0,0.5-0.4,0.9-1,0.9
			c-4.2,0-8.5,0-12.7,0c-1.1,0-2.2,0-3.3,0c-10,0-19.9,0-29.9,0c-0.1,0-0.2,0-0.4,0c-0.5,0-0.9-0.4-0.9-0.9c0-0.5,0.4-0.9,0.9-0.9
			c1.4,0,2.7,0,4.1,0C23,57.3,23.1,57.3,23.2,57.3z M58.7,57.3c0-0.2,0-0.4,0-0.6c0-5.7,0-11.3,0-17c0-0.8,0.3-1.1,1.1-1.1
			c1.5,0,3.1,0,4.6,0c0.2,0,0.4-0.1,0.4-0.2c0-0.1,0-0.4-0.2-0.5c-2.6-2.4-5.3-4.9-7.9-7.3c-1.3-1.2-2.6-2.4-3.9-3.6
			c-3.4-3.1-6.7-6.2-10.1-9.3c-0.3-0.2-0.5-0.5-0.8-0.7c-0.1,0.1-0.3,0.2-0.4,0.3c-2.1,1.9-4.2,3.9-6.3,5.8
			c-0.3,0.3-0.7,0.4-1.1,0.2c-0.4-0.2-0.5-0.5-0.5-0.9c0-1.1,0-2.1,0-3.2c0-0.1,0-0.2,0-0.4c-2.2,0-4.4,0-6.6,0c0,0.1,0,0.2,0,0.4
			c0,3.5,0,7,0,10.5c0,0.6-0.2,1.1-0.7,1.5c-2.4,2.2-4.8,4.4-7.2,6.6c-0.1,0.1-0.2,0.3-0.2,0.5c0,0.3,0.3,0.3,0.5,0.3
			c1.5,0,3,0,4.5,0c0.8,0,1.2,0.3,1.2,1.1c0,5.7,0,11.4,0,17.1c0,0.2,0,0.3,0,0.5c6.1,0,12.1,0,18.2,0c0-0.2,0-0.4,0-0.5
			c0-3.4,0-6.8,0-10.2c0-1.1,0-2.1,0-3.2c0-0.8,0.3-1.2,1.2-1.2c2.6,0,5.3,0,7.9,0c0.7,0,1.1,0.3,1.1,1.1c0,0.2,0,0.4,0,0.5
			c0,3.9,0,7.8,0,11.6c0,0.6,0,1.2,0,1.9C55.2,57.3,56.9,57.3,58.7,57.3z M45.1,44c0,4.4,0,8.9,0,13.3c2.2,0,4.3,0,6.5,0
			c0-4.4,0-8.9,0-13.3C49.4,44,47.3,44,45.1,44z"/>
		<path class="st3" d="M48.3,64.3c-1.5,0-3,0-4.6,0c-0.4,0-0.7-0.2-0.8-0.5c-0.1-0.4-0.1-0.7,0.2-1c0.2-0.3,0.5-0.3,0.9-0.3
			c2.6,0,5.3,0,7.9,0c0.3,0,0.6,0,0.9,0c0.6,0,0.9,0.4,0.9,0.9c0,0.5-0.4,0.9-1,0.9C51.3,64.3,49.8,64.3,48.3,64.3z"/>
		<path class="st3" d="M48.3,67.2c0.9,0,1.9,0,2.8,0c0.6,0,1,0.4,1,0.9c0,0.5-0.4,0.9-1,0.9c-1.9,0-3.7,0-5.6,0c-0.6,0-1-0.4-1-0.9
			c0-0.5,0.4-0.9,1-0.9C46.5,67.2,47.4,67.2,48.3,67.2z"/>
		<path class="st3" d="M33.5,47.1c-1.1,0-2.2,0-3.3,0c-0.7,0-1-0.3-1-1c0-2.2,0-4.4,0-6.6c0-0.6,0.3-1,1-1c2.2,0,4.4,0,6.6,0
			c0.7,0,1,0.3,1,1.1c0,2.2,0,4.3,0,6.5c0,0.6-0.4,1-1,1C35.8,47.1,34.7,47.1,33.5,47.1C33.5,47.1,33.5,47.1,33.5,47.1z M31.1,45.2
			c1.7,0,3.3,0,4.9,0c0-1.6,0-3.3,0-4.9c-1.6,0-3.2,0-4.9,0C31.1,42,31.1,43.6,31.1,45.2z"/>
	</g>
</g>
</svg>
