<svg width="32" height="33" viewBox="0 0 32 33" fill="none" xmlns="http://www.w3.org/2000/svg">
<path d="M28.5714 0.142822H3.42857C2.51926 0.142822 1.64719 0.504046 1.00421 1.14703C0.361223 1.79001 0 2.66208 0 3.57139L0 28.7143C0 29.6236 0.361223 30.4956 1.00421 31.1386C1.64719 31.7816 2.51926 32.1428 3.42857 32.1428H13.2321V21.2635H8.73214V16.1428H13.2321V12.24C13.2321 7.80068 15.875 5.34854 19.9229 5.34854C21.8614 5.34854 23.8886 5.69425 23.8886 5.69425V10.0514H21.655C19.4543 10.0514 18.7679 11.4171 18.7679 12.8178V16.1428H23.6807L22.895 21.2635H18.7679V32.1428H28.5714C29.4807 32.1428 30.3528 31.7816 30.9958 31.1386C31.6388 30.4956 32 29.6236 32 28.7143V3.57139C32 2.66208 31.6388 1.79001 30.9958 1.14703C30.3528 0.504046 29.4807 0.142822 28.5714 0.142822Z" fill="white"/>
</svg>
