<?xml version="1.0" encoding="utf-8"?>
<!-- Generator: Adobe Illustrator 21.0.0, SVG Export Plug-In . SVG Version: 6.00 Build 0)  -->
<svg version="1.1" xmlns="http://www.w3.org/2000/svg" xmlns:xlink="http://www.w3.org/1999/xlink" x="0px" y="0px"
	 viewBox="0 0 129.5 114.4" style="enable-background:new 0 0 129.5 114.4;" xml:space="preserve">
<style type="text/css">
	.st0{fill:#99CB12;}
	.st1{fill:#EFEF5E;}
	.st2{fill:#5F134F;}
	.st3{fill:#FBF6F0;}
	.st4{fill:#F2F2DA;}
	.st5{fill:#72A500;}
</style>
<g id="OBJECTS">
	<g>
		<path class="st0" d="M31.9,2.5c-10.6,5.8-14.2,21.2,5,34c12.2,8.2,19.8,22.1,32.8,29.2c8.2,4.4,20.4,2.3,29.2-3.9
			c16.9-12,21.2-34.4,3.8-49.4c-5.4-4.6-12.2-7.5-19.2-8.3c-3.9-0.4-7.7,0.2-11.6,0C60.2,3.6,43.5-3.8,31.9,2.5z"/>
		<path class="st1" d="M38.9,6.8c-8.5,5-11.7,17.4,4.1,27.9c10,6.7,16.2,18.2,26.9,24c6.7,3.6,16.7,1.9,23.9-3.2
			c13.8-9.8,17.4-28.2,3.1-40.5c-4.4-3.8-10-6.2-15.8-6.8c-3.2-0.3-6.3,0.2-9.5,0C62.1,7.7,45.8,2.8,38.9,6.8z"/>
		<path class="st2" d="M88,22c5.4,5.3,7.1,15.9,1.8,21.3s-16,6.9-23.5-0.6c-5.4-5.3-5.5-14-0.1-19.4C71.5,17.9,82.6,16.7,88,22z"/>
	</g>
</g>
<g id="DESIGNED_BY_FREEPIK">
	<g>
		<g>
			<path class="st5" d="M7.5,113.7c-1.9-0.5-3.5-1.1-4.8-1.8c-0.6-0.4-0.9-0.9-0.9-1.7c0-0.5,0.2-1,0.6-1.4c0.4-0.4,0.8-0.6,1.4-0.6
				c0.3,0,0.6,0.1,0.9,0.2c2.5,1.3,5.2,1.9,8.2,1.9c5,0,7.6-2.7,7.6-8.1v-3.3c-2.3,2.5-5.2,3.8-8.5,3.8c-1.9,0-3.8-0.5-5.7-1.5
				c-1.8-1-3.3-2.4-4.5-4.4S0,92.4,0,89.7c0-2.8,0.6-5.1,1.8-7.1s2.7-3.4,4.5-4.4c1.8-1,3.7-1.5,5.7-1.5c3.3,0,6.1,1.3,8.5,3.8v-1.2
				c0-0.6,0.2-1.2,0.6-1.6c0.4-0.4,1-0.7,1.6-0.7c0.6,0,1.2,0.2,1.6,0.7s0.7,1,0.7,1.6v22.1c0,4.2-1,7.4-3,9.6
				c-2,2.2-4.9,3.4-8.6,3.4C11.4,114.4,9.5,114.1,7.5,113.7z M17,97.4c1.2-0.7,2.3-1.5,3.4-2.7V84.6c-1.1-1.1-2.2-2-3.4-2.7
				c-1.2-0.7-2.6-1-4.1-1c-2.5,0-4.5,0.8-6.1,2.3c-1.6,1.5-2.4,3.7-2.4,6.5c0,2.8,0.8,5,2.4,6.5c1.6,1.5,3.6,2.3,6.1,2.3
				C14.5,98.4,15.8,98.1,17,97.4z"/>
			<path class="st5" d="M33.4,102.1c-0.4-0.4-0.6-1-0.6-1.6V79.3c0-0.6,0.2-1.2,0.6-1.6s1-0.7,1.6-0.7c0.6,0,1.2,0.2,1.6,0.7
				s0.7,1,0.7,1.6v2.1c2.3-3.1,4.9-4.7,7.8-4.7h0.2c0.6,0,1.1,0.2,1.6,0.6c0.4,0.4,0.6,1,0.6,1.6c0,0.6-0.2,1.1-0.6,1.5
				c-0.4,0.4-1,0.6-1.6,0.6h-0.2c-1.6,0-3,0.4-4.4,1.2c-1.3,0.8-2.4,1.8-3.3,3.2v15c0,0.6-0.2,1.2-0.7,1.6c-0.4,0.4-1,0.6-1.6,0.6
				C34.4,102.8,33.8,102.6,33.4,102.1z"/>
			<path class="st5" d="M52.8,99.6c-2.3-2.3-3.4-5.5-3.4-9.7c0-2.3,0.4-4.5,1.3-6.5s2.2-3.6,4-4.8c1.8-1.2,4-1.8,6.6-1.8
				c2.4,0,4.6,0.6,6.3,1.7s3.1,2.7,4.1,4.6c0.9,1.9,1.4,4,1.4,6.2c0,0.6-0.2,1.2-0.6,1.6c-0.4,0.4-1,0.6-1.7,0.6H54
				c0.3,2.3,1.1,4.1,2.6,5.4c1.5,1.3,3.5,1.9,6.1,1.9c1.4,0,2.6-0.1,3.6-0.4c1-0.3,2.1-0.6,3-1.1c0.3-0.1,0.6-0.2,0.9-0.2
				c0.5,0,1,0.2,1.4,0.5c0.4,0.4,0.6,0.8,0.6,1.4c0,0.7-0.4,1.3-1.3,1.8c-1.3,0.7-2.6,1.3-3.8,1.6c-1.3,0.4-2.9,0.5-4.8,0.5
				C58.2,103,55.1,101.9,52.8,99.6z M68.6,87.8c-0.1-1.6-0.5-3-1.3-4.1c-0.7-1.1-1.7-1.9-2.7-2.4c-1.1-0.5-2.2-0.8-3.3-0.8
				c-1.1,0-2.2,0.3-3.3,0.8c-1.1,0.5-2,1.3-2.7,2.4c-0.7,1.1-1.1,2.4-1.2,4.1H68.6z"/>
			<path class="st5" d="M80.8,99.6c-2.3-2.3-3.4-5.5-3.4-9.7c0-2.3,0.4-4.5,1.3-6.5s2.2-3.6,4-4.8c1.8-1.2,4-1.8,6.6-1.8
				c2.4,0,4.6,0.6,6.3,1.7s3.1,2.7,4.1,4.6c0.9,1.9,1.4,4,1.4,6.2c0,0.6-0.2,1.2-0.6,1.6c-0.4,0.4-1,0.6-1.7,0.6H82
				c0.3,2.3,1.1,4.1,2.6,5.4c1.5,1.3,3.5,1.9,6.1,1.9c1.4,0,2.6-0.1,3.6-0.4c1-0.3,2.1-0.6,3-1.1c0.3-0.1,0.6-0.2,0.9-0.2
				c0.5,0,1,0.2,1.4,0.5c0.4,0.4,0.6,0.8,0.6,1.4c0,0.7-0.4,1.3-1.3,1.8c-1.3,0.7-2.6,1.3-3.8,1.6c-1.3,0.4-2.9,0.5-4.8,0.5
				C86.2,103,83.1,101.9,80.8,99.6z M96.6,87.8c-0.1-1.6-0.5-3-1.3-4.1c-0.7-1.1-1.7-1.9-2.7-2.4c-1.1-0.5-2.2-0.8-3.3-0.8
				c-1.1,0-2.2,0.3-3.3,0.8c-1.1,0.5-2,1.3-2.7,2.4c-0.7,1.1-1.1,2.4-1.2,4.1H96.6z"/>
			<path class="st5" d="M107.6,102.1c-0.4-0.4-0.6-1-0.6-1.6V79.3c0-0.6,0.2-1.2,0.6-1.6s1-0.7,1.6-0.7c0.6,0,1.2,0.2,1.6,0.7
				s0.7,1,0.7,1.6v2c1.3-1.4,2.6-2.5,4.1-3.3c1.5-0.8,3.2-1.2,5.1-1.2c1.8,0,3.4,0.4,4.7,1.3c1.3,0.9,2.4,2,3.1,3.5
				c0.7,1.5,1.1,3.1,1.1,4.9v14.1c0,0.6-0.2,1.2-0.7,1.6c-0.4,0.4-1,0.6-1.6,0.6c-0.6,0-1.2-0.2-1.6-0.6c-0.4-0.4-0.6-1-0.6-1.6V87
				c0-4-1.8-6-5.4-6c-1.6,0-3.1,0.4-4.4,1.3c-1.3,0.9-2.5,2-3.7,3.5v14.8c0,0.6-0.2,1.2-0.7,1.6c-0.4,0.4-1,0.6-1.6,0.6
				C108.6,102.8,108,102.6,107.6,102.1z"/>
		</g>
	</g>
</g>
</svg>
