<?xml version="1.0" encoding="utf-8"?>
<!-- Generator: Adobe Illustrator 21.0.0, SVG Export Plug-In . SVG Version: 6.00 Build 0)  -->
<svg version="1.1" xmlns="http://www.w3.org/2000/svg" xmlns:xlink="http://www.w3.org/1999/xlink" x="0px" y="0px"
	 viewBox="0 0 90.6 68.1" style="enable-background:new 0 0 90.6 68.1;" xml:space="preserve">
<style type="text/css">
	.st0{fill:#99CB12;}
	.st1{fill:#EFEF5E;}
	.st2{fill:#5F134F;}
	.st3{fill:#FBF6F0;}
	.st4{fill:#F2F2DA;}
	.st5{fill:#72A500;}
</style>
<g id="OBJECTS">
	<g>
		<path class="st0" d="M8.7,2.5c-10.6,5.8-14.2,21.2,5,34c12.2,8.2,19.8,22.1,32.8,29.2c8.2,4.4,20.4,2.3,29.2-3.9
			c16.9-12,21.2-34.4,3.8-49.4c-5.4-4.6-12.2-7.5-19.2-8.3c-3.9-0.4-7.7,0.2-11.6,0C37,3.6,20.3-3.8,8.7,2.5z"/>
		<path class="st1" d="M15.7,6.8c-8.5,5-11.7,17.4,4.1,27.9c10,6.7,16.2,18.2,26.9,24c6.7,3.6,16.7,1.9,23.9-3.2
			c13.8-9.8,17.4-28.2,3.1-40.5c-4.4-3.8-10-6.2-15.8-6.8c-3.2-0.3-6.3,0.2-9.5,0C39,7.7,22.6,2.8,15.7,6.8z"/>
		<path class="st2" d="M64.8,22c5.4,5.3,7.1,15.9,1.8,21.3s-16,6.9-23.5-0.6c-5.4-5.3-5.5-14-0.1-19.4S59.4,16.7,64.8,22z"/>
	</g>
</g>
</svg>
