<?xml version="1.0" encoding="utf-8"?>
<!-- Generator: Adobe Illustrator 21.0.0, SVG Export Plug-In . SVG Version: 6.00 Build 0)  -->
<svg version="1.1" xmlns="http://www.w3.org/2000/svg" xmlns:xlink="http://www.w3.org/1999/xlink" x="0px" y="0px"
	 viewBox="0 0 83.7 83.7" style="enable-background:new 0 0 83.7 83.7;" xml:space="preserve">
<style type="text/css">
	.st0{fill:none;}
	.st1{fill:#F2F2DA;}
	.st2{fill:url(#Nueva_muestra_de_motivo_3);stroke:#99CB12;stroke-width:2;stroke-miterlimit:10;}
	.st3{fill:#99CB12;}
	.st4{fill:#EFEF5E;}
	.st5{fill:#5F134F;}
	.st6{fill:url(#Nueva_muestra_de_motivo_3);}
	.st7{fill:#72A500;}
</style>
<pattern  x="-1150.3" y="-435.1" width="20.3" height="24" patternUnits="userSpaceOnUse" id="Nueva_muestra_de_motivo_3" viewBox="0 -24 20.3 24" style="overflow:visible;">
	<g>
		<rect y="-24" class="st0" width="20.3" height="24"/>
		<rect y="-24" class="st1" width="20.3" height="24"/>
	</g>
</pattern>
<g id="OBJECTS">
	<circle class="st2" cx="41.9" cy="41.9" r="40.9"/>
	<path class="st3" d="M44.2,58.8c-0.1,0-0.2,0-0.3,0c-1.7-0.1-2.8-0.8-3.4-2.1l-0.1-0.1l-0.5,0.3c-0.8,0.6-1.7,0.8-2.7,0.8
		c-0.4,0-0.9-0.1-1.3-0.2c-0.9-0.2-1.5-0.7-1.8-1.6c0-0.1-0.2-0.4-0.2-0.4l-0.1,0c-2.2,1-4.5,1.1-6.5,1.2c-2.1,0.1-4.2,0.2-6.2,0.3
		c-0.9,0.1-1.9,0.1-2.8,0.2l-0.6,0c-0.8,0-1.5,0.1-2.3,0.1l0,0c-0.5,0-0.9-0.4-0.9-0.9c0-0.5,0.4-0.9,0.9-1c0.2,0,0.5,0,0.7-0.1
		l3.7-0.2c2.4-0.1,4.8-0.3,7.2-0.4l0.7,0c1-0.1,2-0.1,3-0.2c1.8-0.2,3.5-1.1,5-2.6c1.1-1.1,2.3-2.3,3.4-3.4c0.1-0.1,0.3-0.3,0.6-0.3
		c1.7-0.6,4-1.5,6.1-2.9c1.3-0.8,2-1.7,2.5-2.8c0.4-1.1,0.3-2-0.3-2.9c-0.3-0.5-0.8-0.7-1.4-0.7c-1.2,0-2.2,0.4-3.2,0.9
		c-2.7,1.2-5.4,2.5-8.1,3.7l-4.1,1.9c-0.2,0.1-0.3,0.1-0.5,0.1c-0.4,0-0.7-0.2-0.9-0.6c-0.1-0.2-0.1-0.5,0-0.7
		c0.1-0.3,0.3-0.5,0.6-0.6l0.4-0.2c0.3-0.1,0.5-0.2,0.8-0.4c0.3-0.1,0.4-0.3,0.4-0.6c0-3.2,0-6.4,0-9.6c0-0.6,0-1.1,0-1.7
		c0-0.5,0-1.1,0-1.6c0-0.1-0.1-0.3-0.2-0.4c-0.3-0.1-0.6-0.2-0.9-0.2c-0.3,0-0.5,0.1-0.8,0.2c-0.6,0.3-1,0.7-1.3,1
		c-1.7,1.6-3.7,3-5.5,4.4l-0.7,0.5c-1.5,1.1-3,2.2-4.5,3.3l-2.1,1.5c-0.2,0.1-0.4,0.2-0.6,0.2c-0.2,0-0.4-0.1-0.5-0.2
		c-0.2-0.2-0.3-0.3-0.3-0.5c0-0.2,0-0.3,0-0.4c0-0.3,0.1-0.5,0.4-0.8c3.7-2.7,7.3-5.3,10.9-8c0.4-0.3,0.8-0.7,1.2-1
		c0.2-0.2,0.5-0.5,0.8-0.7c0.8-0.6,1.7-1.3,2.9-1.3c0.6,0,1.1,0.1,1.6,0.2c0.1,0,0.2,0,0.2,0c0.2,0,0.3-0.1,0.4-0.2
		c1-1.5,2.5-2.3,4.3-2.3c4.1,0,8.3,0,12.4,0h14.3c2.5,0,4.5,1.7,4.9,4.1c0.1,0.3,0.1,0.6,0.1,1c0,5.4,0,10.7,0,16.1
		c0,2.4-1.4,4.2-3.6,4.7c-0.3,0.1-0.7,0.1-1.1,0.1l-9.5,0l-0.1,0.7c-0.1,0.4-0.2,0.9-0.3,1.3c-0.4,1.5-1,2.6-2,3.4
		c-0.9,0.7-1.9,1.1-2.8,1.1c-0.6,0-1.2-0.1-1.9-0.4l-0.1,0l-0.1,0.1C46.5,58.3,45.4,58.8,44.2,58.8z M43,50.9
		c-0.4,0-0.4,0.2-0.5,0.5c-0.1,0.9-0.2,1.7-0.3,2.6c-0.1,0.8-0.1,1.4,0.2,1.9c0.1,0.3,0.4,0.6,0.8,0.7c0.4,0.1,0.7,0.2,1.1,0.2
		c0.5,0,1-0.2,1.5-0.6c0.3-0.3,0.6-0.6,0.9-0.9c0.2-0.2,0.2-0.3,0.2-0.5c0-0.3,0-0.6,0-0.9c0-0.5,0-1,0-1.5c0-0.3,0.1-0.7,0.1-1.1
		l0.1-0.6l-0.3,0c-0.1,0-0.1,0-0.2,0l-2,0C43.9,50.9,43.5,50.9,43,50.9L43,50.9z M40.1,50.9c-0.3,0-0.6,0.1-0.9,0.4
		c-1,1-2.1,2-3,2.9c-0.2,0.2-0.3,0.5-0.2,0.8c0.1,0.3,0.2,0.5,0.5,0.5c0.3,0.1,0.6,0.1,0.9,0.1c0.1,0,0.2,0,0.3,0
		c1-0.1,1.6-0.7,2.2-1.3l0.1-0.1c0.1-0.1,0.2-0.2,0.3-0.4c0.1-0.7,0.2-1.4,0.3-2.1l0.1-0.8l-0.1,0C40.3,51,40.2,50.9,40.1,50.9z
		 M48.8,51.6c-0.1,0.4-0.1,0.9-0.2,1.3c0,0.5,0,1.1,0,1.6l0,0.4c0,0.3,0.2,0.5,0.6,0.6c0.2,0,0.3,0,0.5,0c0.5,0,1-0.2,1.5-0.6
		c0.8-0.7,1.2-1.6,1.4-2.6c0.1-0.3,0.1-0.6,0.2-0.9l0.1-0.6h-4C48.9,51,48.8,51.4,48.8,51.6z M46.5,37.1c1.9,0,3.3,1.1,3.8,3
		c0.5,1.8,0.1,3.4-1.2,5.1c-0.8,0.9-1.7,1.7-3.2,2.5c-0.4,0.2-0.9,0.5-1.3,0.7l-0.9,0.5l0.3,0.1c0.2,0.1,0.4,0.1,0.6,0.1
		c0,0,16.1,0,19.9,0c1.3,0,2.3-0.8,2.6-2c0.1-0.3,0.1-0.6,0.1-0.9c0-2.4,0-4.9,0-7.3l0-4.2H34.1V42l0.2,0c0.1,0,0.1,0,0.2-0.1l2-0.9
		c1.6-0.7,3.2-1.5,4.8-2.2c1.4-0.7,2.8-1.3,4.4-1.6C46,37.1,46.2,37.1,46.5,37.1z M37.3,26.9c-1.2,0-2,0.5-2.7,1.5
		c-0.4,0.6-0.6,1.2-0.5,1.9l0,0.1h33c0,0,0-0.3,0-0.3c0-0.8-0.3-1.6-0.9-2.2c-0.6-0.6-1.4-1-2.2-1H52.3
		C47.3,26.9,42.3,26.9,37.3,26.9L37.3,26.9z"/>
</g>
</svg>
