<?xml version="1.0" encoding="utf-8"?>
<!-- Generator: Adobe Illustrator 21.0.0, SVG Export Plug-In . SVG Version: 6.00 Build 0)  -->
<svg version="1.1" xmlns="http://www.w3.org/2000/svg" xmlns:xlink="http://www.w3.org/1999/xlink" x="0px" y="0px"
	 viewBox="0 0 67.9 66.1" style="enable-background:new 0 0 67.9 66.1;" xml:space="preserve">
<style type="text/css">
	.st0{fill:#99CB12;}
	.st1{fill:#EFEF5E;}
	.st2{fill:#5F134F;}
	.st3{fill:#FBF6F0;}
	.st4{fill:#F2F2DA;}
	.st5{fill:#72A500;}
</style>
<g id="OBJECTS">
	<path class="st0" d="M0,37.4c0-2.1,0-4.2,0-6.3c1.1-2.4,2.9-3.2,5.5-3.2c7.2,0.1,14.5,0,21.7,0c0.5,0,1,0,1.6,0
		c0,0.3,0,0.4-0.1,0.5c-2.3,3.4-1,7.2,1.6,8.9c2.9,2,6.4,1.4,8.9-1.7c1.9-2.2,3.8-4.4,5.6-6.7c0.6-0.8,1.3-1.1,2.3-1.1
		c5.1,0,10.2,0.1,15.2,0c2.6-0.1,4.5,0.8,5.5,3.2c0,2.1,0,4.2,0,6.3c-0.9,1-1.7,2.3-2.9,2.8c-1.2,0.5-1.7,1-1.7,2.2
		c0,0.5-0.2,1-0.3,1.5c-1.2,7.4-2.5,14.7-3.7,22.1c-17,0-33.9,0-50.9,0c0-0.2-0.1-0.4-0.1-0.6C7.1,57.6,5.8,49.8,4.5,42
		c-0.1-0.5-0.4-1.3-0.8-1.4C1.8,40.3,0.8,39,0,37.4z M36.2,53.5c0-2,0-3.9,0-5.9c0-1.7-0.9-2.7-2.2-2.7c-1.3,0-2.2,1-2.2,2.7
		c0,3.9,0,7.7,0,11.6c0,1.7,0.9,2.7,2.2,2.7c1.3,0,2.2-1,2.2-2.7C36.2,57.3,36.2,55.4,36.2,53.5z M27.7,53.4c0-2,0-3.9,0-5.9
		c0-1.7-0.9-2.7-2.2-2.6c-1.3,0-2.1,1-2.1,2.6c0,3.9,0,7.8,0,11.7c0,1.6,0.8,2.6,2.1,2.6c1.3,0.1,2.2-1,2.3-2.6
		C27.7,57.3,27.7,55.4,27.7,53.4z M44.7,53.4c0-1.9,0-3.8,0-5.7c0-1.7-0.8-2.7-2.1-2.8c-1.3,0-2.2,0.9-2.2,2.6c0,3.9,0,7.8,0,11.7
		c0,1.7,0.9,2.7,2.3,2.6c1.2-0.1,2.1-1.1,2.1-2.6C44.7,57.3,44.7,55.3,44.7,53.4z M19.1,53.5c0-2,0-4,0-6c0-1.6-0.9-2.5-2.2-2.5
		c-1.3,0-2.1,1-2.1,2.6c0,4,0,7.9,0,11.9c0,1.6,0.9,2.6,2.2,2.5c1.3,0,2.1-1,2.1-2.6C19.2,57.4,19.1,55.4,19.1,53.5z M48.8,53.3
		c0,2,0,4,0,6c0,1.6,0.8,2.6,2.1,2.6c1.3,0,2.2-1,2.2-2.5c0-4,0-7.9,0-11.9c0-1.6-0.8-2.5-2.1-2.6c-1.3,0-2.1,0.9-2.2,2.5
		C48.8,49.4,48.8,51.3,48.8,53.3z"/>
	<path class="st0" d="M34.3,36.3c-2,0-3.4-0.7-4.1-2.3c-0.8-1.6-0.6-3.2,0.6-4.7c3.3-4,6.7-8.1,10-12.1c3.5-4.2,7-8.4,10.5-12.6
		c1.2-1.5,2.6-2.6,4.6-2.1c3.4,0.8,4.5,4.3,2.3,7.1c-2.8,3.4-5.7,6.8-8.5,10.2c-4,4.8-8.1,9.7-12.1,14.5
		C36.7,35.5,35.6,36.4,34.3,36.3z"/>
</g>
</svg>
